<?xml version="1.0" standalone="no"?>
<!DOCTYPE svg PUBLIC "-//W3C//DTD SVG 20010904//EN"
 "http://www.w3.org/TR/2001/REC-SVG-20010904/DTD/svg10.dtd">
<svg version="1.0" xmlns="http://www.w3.org/2000/svg"
 width="512.000000pt" height="512.000000pt" viewBox="0 0 512.000000 512.000000"
 preserveAspectRatio="xMidYMid meet">

<g transform="translate(0.000000,512.000000) scale(0.100000,-0.100000)"
fill="#000000" stroke="none">
<path d="M3115 5109 c-319 -33 -662 -173 -914 -372 -278 -220 -494 -523 -597
-837 l-27 -85 -554 -555 c-304 -306 -553 -563 -553 -572 0 -51 50 -95 94 -82
11 3 231 216 489 472 l467 467 -5 -45 c-13 -123 -14 -197 -5 -313 43 -569 345
-1080 821 -1390 185 -121 411 -213 628 -257 112 -23 326 -41 400 -35 25 3 77
7 116 10 l69 5 -204 -205 c-191 -191 -204 -206 -204 -241 0 -26 7 -42 23 -55
51 -42 57 -38 361 266 l286 286 99 34 c625 218 1070 746 1192 1415 21 117 24
436 5 555 -157 970 -1018 1635 -1987 1534z m424 -154 c57 -8 121 -20 142 -25
l39 -11 0 -75 c0 -85 -21 -140 -67 -172 -73 -50 -282 -162 -315 -167 -21 -4
-53 -2 -74 5 -45 15 -269 143 -303 174 -39 35 -61 94 -61 168 l0 67 73 16
c166 37 391 45 566 20z m-786 -156 c7 -88 40 -158 99 -216 44 -42 295 -194
355 -214 l33 -11 0 -227 0 -228 -43 -17 c-49 -18 -282 -153 -328 -189 l-32
-25 -111 65 c-61 36 -150 87 -197 114 l-86 49 9 52 c6 29 8 127 6 218 -3 152
-6 169 -30 221 -31 67 -86 131 -139 161 -22 12 -39 25 -39 28 0 10 138 110
218 159 65 39 257 131 273 131 3 0 9 -32 12 -71z m1275 5 c120 -57 214 -114
300 -183 l53 -42 -60 -40 c-34 -23 -73 -60 -91 -86 -54 -83 -61 -125 -59 -352
l2 -205 -193 -112 -194 -112 -35 28 c-45 36 -288 177 -330 191 l-31 11 2 231
3 230 35 12 c72 25 315 175 357 220 52 57 83 136 83 216 0 73 -7 73 158 -7z
m-1828 -376 c94 -63 104 -88 109 -268 4 -175 -7 -237 -52 -283 -18 -18 -94
-68 -170 -111 -125 -71 -144 -79 -191 -79 -42 0 -67 8 -115 34 -33 18 -61 39
-61 46 0 26 66 194 112 288 28 55 73 133 101 175 52 79 184 240 196 240 4 0
35 -19 71 -42z m2434 -119 c113 -148 216 -346 260 -497 17 -58 23 -47 -57 -96
-45 -27 -104 -38 -147 -26 -47 13 -272 141 -314 179 -50 45 -56 74 -56 261 0
219 11 247 130 314 l45 25 33 -32 c19 -18 66 -75 106 -128z m-2067 -653 l188
-108 -1 -236 -2 -236 -183 -108 c-101 -59 -190 -107 -197 -107 -7 -1 -30 12
-50 28 -62 49 -284 171 -341 188 -74 21 -154 13 -236 -26 -36 -16 -65 -27 -65
-23 0 4 -5 34 -10 67 -19 111 -10 479 13 501 2 3 27 -7 56 -21 104 -53 216
-51 324 6 100 52 272 156 287 174 7 8 16 14 21 13 4 -2 92 -52 196 -112z
m1899 -21 c110 -63 159 -85 205 -94 73 -13 152 0 222 36 27 13 50 23 52 21 8
-7 25 -204 25 -282 0 -70 -18 -286 -24 -293 -1 -1 -29 12 -63 28 -71 36 -159
47 -230 30 -50 -13 -287 -143 -358 -196 l-40 -31 -193 112 -194 113 0 233 1
233 43 26 c24 14 110 65 192 112 l150 86 34 -25 c18 -14 98 -63 178 -109z
m-1050 90 c38 -19 112 -61 164 -92 137 -84 140 -90 140 -316 0 -241 -2 -246
-180 -349 -153 -89 -174 -98 -232 -98 -49 0 -66 7 -193 81 -163 94 -172 101
-196 154 -16 34 -19 66 -19 205 0 235 4 240 200 356 184 108 210 113 316 59z
m-552 -794 c28 -26 280 -173 331 -193 l40 -16 3 -230 2 -230 -27 -6 c-39 -10
-307 -164 -354 -204 -54 -46 -100 -144 -106 -226 -3 -37 -9 -66 -13 -66 -16 0
-158 63 -219 97 -80 44 -232 146 -255 171 -15 18 -13 21 38 56 69 47 121 123
142 206 13 51 15 98 12 235 -3 93 -7 176 -9 184 -3 10 58 51 191 128 107 62
197 113 199 113 3 0 14 -9 25 -19z m1123 -95 l188 -108 0 -227 c0 -210 2 -229
21 -272 28 -60 85 -123 142 -156 l45 -27 -29 -23 c-108 -89 -416 -263 -465
-263 -13 0 -17 14 -21 73 -5 84 -37 152 -97 210 -39 38 -284 186 -344 208
l-37 13 0 232 0 232 28 7 c32 7 274 144 329 186 21 15 41 27 45 26 3 -1 91
-51 195 -111z m-1896 20 c146 -84 192 -124 208 -183 14 -49 14 -307 0 -356
-13 -49 -64 -105 -124 -137 l-47 -25 -60 65 c-72 77 -184 243 -237 349 -48 95
-113 268 -109 288 2 9 32 31 68 50 98 52 132 47 301 -51z m2734 55 c94 -46 90
-35 50 -151 -67 -190 -173 -373 -309 -532 l-67 -77 -52 30 c-68 40 -85 56
-108 101 -16 32 -19 60 -19 210 0 228 5 239 140 321 146 88 228 127 269 127
20 0 63 -13 96 -29z m-1320 -871 c71 -41 142 -86 159 -100 41 -34 56 -78 56
-164 l0 -74 -97 -19 c-139 -26 -509 -24 -633 3 l-85 19 0 80 c1 116 17 138
163 224 191 112 191 112 252 108 48 -3 73 -13 185 -77z"/>
<path d="M983 4336 c-23 -7 -56 -23 -75 -34 -18 -12 -178 -166 -355 -344 -361
-362 -367 -370 -367 -493 0 -168 128 -298 294 -299 126 -2 128 0 498 368 381
378 387 385 387 511 0 91 -20 146 -74 208 -68 77 -210 115 -308 83z m154 -155
c70 -32 101 -119 69 -194 -8 -18 -154 -171 -327 -344 -345 -342 -355 -349
-438 -324 -46 13 -96 68 -105 113 -16 78 -4 93 322 422 360 362 377 373 479
327z"/>
<path d="M275 2500 c-11 -4 -64 -53 -117 -107 -129 -132 -153 -181 -153 -313
0 -86 3 -101 32 -161 39 -79 111 -150 191 -187 49 -23 70 -27 152 -27 139 0
184 25 367 200 78 74 158 142 177 150 19 8 58 15 86 15 154 0 258 -139 215
-288 -16 -56 -27 -67 -590 -632 -546 -548 -574 -578 -595 -635 -29 -80 -25
-197 10 -270 31 -64 101 -134 165 -165 42 -21 65 -25 145 -25 80 0 103 4 145
24 39 19 182 156 675 646 501 499 633 625 663 635 62 20 157 9 205 -23 80 -52
118 -159 91 -254 -11 -42 -36 -72 -206 -245 -166 -168 -198 -206 -225 -264
-118 -252 52 -548 329 -571 77 -6 173 14 232 49 20 11 199 183 399 382 329
327 362 364 362 393 0 43 -30 73 -72 73 -29 0 -68 -36 -388 -354 -195 -195
-370 -362 -389 -371 -51 -26 -130 -30 -187 -11 -68 22 -118 66 -150 132 -23
47 -26 63 -22 122 3 37 13 83 23 102 10 19 103 121 206 226 212 214 236 250
246 372 10 125 -50 261 -148 332 -73 52 -143 72 -239 68 -158 -7 -117 27 -820
-673 -503 -501 -633 -625 -664 -635 -55 -18 -128 -8 -175 23 -71 47 -103 164
-65 240 9 18 267 284 574 592 598 600 597 599 620 723 28 158 -60 326 -210
400 -49 24 -66 27 -160 27 -147 0 -176 -15 -366 -198 -157 -150 -185 -167
-270 -167 -46 0 -130 37 -161 71 -34 37 -63 110 -63 159 0 70 33 126 131 226
78 80 89 96 89 126 0 51 -50 87 -95 68z"/>
<path d="M4330 1633 c-38 -13 -118 -88 -543 -512 -358 -357 -504 -509 -520
-541 -29 -60 -35 -162 -13 -228 52 -155 235 -240 391 -182 57 21 85 47 547
508 342 340 495 500 515 536 25 45 28 61 28 141 0 74 -4 97 -23 132 -31 59
-86 111 -146 139 -61 28 -165 31 -236 7z m206 -164 c54 -50 69 -120 39 -183
-8 -17 -228 -244 -488 -503 -414 -413 -477 -472 -509 -478 -129 -24 -222 83
-178 202 11 30 913 941 965 975 43 28 135 21 171 -13z"/>
</g>
</svg>
